Exact Audio Copy V0.99 prebeta 5 from 4. May 2009

EAC extraction logfile from 25. September 2009, 17:41

Various / Live At Robert Johnson Vol. 3

Used drive  : HL-DT-STDVDRAM GSA-U10N   Adapter: 2  ID: 1

Read mode               : Secure
Utilize accurate stream : Yes
Defeat audio cache      : Yes
Make use of C2 pointers : No

Read offset correction                      : 667
Overread into Lead-In and Lead-Out          : No
Fill up missing offset samples with silence : Yes
Delete leading and trailing silent blocks   : No
Null samples used in CRC calculations       : Yes
Used interface                              : Native Win32 interface for Win NT & 2000
Gap handling                                : Appended to previous track

Used output format              : User Defined Encoder
Selected bitrate                : 768 kBit/s
Quality                         : High
Add ID3 tag                     : No
Command line compressor         : C:Program FilesExact Audio CopyFLACFLAC.EXE
Additional command line options : -V -8 -T "artist=%a" -T "title=%t" -T "album=%g" -T "date=%y" -T "tracknumber=%n" -T "genre=%m" %s  


TOC of the extracted CD

     Track |   Start  |  Length  | Start sector | End sector 
    ---------------------------------------------------------
        1  |  0:00.00 |  5:15.03 |         0    |    23627   
        2  |  5:15.03 |  5:16.38 |     23628    |    47365   
        3  | 10:31.41 |  1:51.07 |     47366    |    55697   
        4  | 12:22.48 |  1:25.32 |     55698    |    62104   
        5  | 13:48.05 |  5:21.49 |     62105    |    86228   
        6  | 19:09.54 |  3:24.41 |     86229    |   101569   
        7  | 22:34.20 |  8:48.09 |    101570    |   141178   
        8  | 31:22.29 |  4:20.17 |    141179    |   160695   
        9  | 35:42.46 |  5:31.72 |    160696    |   185592   
       10  | 41:14.43 |  5:36.57 |    185593    |   210849   
       11  | 46:51.25 |  2:02.35 |    210850    |   220034   
       12  | 48:53.60 |  7:45.14 |    220035    |   254923   
       13  | 56:38.74 |  6:44.08 |    254924    |   285231   
       14  | 63:23.07 |  5:54.48 |    285232    |   311829   


Track  1

     Filename C:Ivan Smagghe - Live At Robert Johnson Vol. 3Gary Beck - Drifting (Original Mix).wav

     Pre-gap length  0:00:02.00

     Peak level 98.5 %
     Track quality 100.0 %
     Test CRC 3E22E400
     Copy CRC 3E22E400
     Copy OK

Track  2

     Filename C:Ivan Smagghe - Live At Robert Johnson Vol. 3Two Banks of Four - Junkyard Gods (Tribute To Sadkin Dub).wav

     Peak level 98.5 %
     Track quality 100.0 %
     Test CRC 540C9D1E
     Copy CRC 540C9D1E
     Copy OK

Track  3

     Filename C:Ivan Smagghe - Live At Robert Johnson Vol. 3Eddie Zarook & Casio Casino - Was.wav

     Peak level 98.5 %
     Track quality 100.0 %
     Test CRC 8BDA41DC
     Copy CRC 8BDA41DC
     Copy OK

Track  4

     Filename C:Ivan Smagghe - Live At Robert Johnson Vol. 3In Flagranti - Efx 10-11.wav

     Peak level 98.5 %
     Track quality 100.0 %
     Test CRC F573A335
     Copy CRC F573A335
     Copy OK

Track  5

     Filename C:Ivan Smagghe - Live At Robert Johnson Vol. 3Entertainment - U 1988 (Kruton Remix).wav

     Peak level 98.5 %
     Track quality 100.0 %
     Test CRC AE9C8F7F
     Copy CRC AE9C8F7F
     Copy OK

Track  6

     Filename C:Ivan Smagghe - Live At Robert Johnson Vol. 3Rцyksopp - Happy Up Here (Holy Fuck Re-Interpretation).wav

     Peak level 98.5 %
     Track quality 99.9 %
     Test CRC B78479FE
     Copy CRC B78479FE
     Copy OK

Track  7

     Filename C:Ivan Smagghe - Live At Robert Johnson Vol. 3It's A Fine Line - Never Go With A Hippie To A Second Location.wav

     Peak level 98.5 %
     Track quality 100.0 %
     Test CRC 3F2B7683
     Copy CRC 3F2B7683
     Copy OK

Track  8

     Filename C:Ivan Smagghe - Live At Robert Johnson Vol. 3Wighnomy Bros. - Exvola Stupp.wav

     Peak level 98.5 %
     Track quality 100.0 %
     Test CRC 0AFC3C1C
     Copy CRC 0AFC3C1C
     Copy OK

Track  9

     Filename C:Ivan Smagghe - Live At Robert Johnson Vol. 3Seymour Bits - Watskeburt (Original Instrumental Version).wav

     Peak level 98.5 %
     Track quality 100.0 %
     Test CRC AFDB233C
     Copy CRC AFDB233C
     Copy OK

Track 10

     Filename C:Ivan Smagghe - Live At Robert Johnson Vol. 3Ryan Davis - Spicyal Sound.wav

     Peak level 98.5 %
     Track quality 100.0 %
     Test CRC B17E338F
     Copy CRC B17E338F
     Copy OK

Track 11

     Filename C:Ivan Smagghe - Live At Robert Johnson Vol. 3Battant - The Butcher (Marc Houle Remix).wav

     Peak level 98.5 %
     Track quality 100.0 %
     Test CRC F29326C5
     Copy CRC F29326C5
     Copy OK

Track 12

     Filename C:Ivan Smagghe - Live At Robert Johnson Vol. 3Loin Brothers - Heavy Helmet (Mock & Toof Remix).wav

     Peak level 98.5 %
     Track quality 100.0 %
     Test CRC BFB5480C
     Copy CRC BFB5480C
     Copy OK

Track 13

     Filename C:Ivan Smagghe - Live At Robert Johnson Vol. 3Dark Day - No, Nothing, Ever.wav

     Peak level 98.5 %
     Track quality 99.9 %
     Test CRC 6F57D6B6
     Copy CRC 6F57D6B6
     Copy OK

Track 14

     Filename C:Ivan Smagghe - Live At Robert Johnson Vol. 3Rheingold - Dreiklangsdimensionen.wav

     Pre-gap length  0:00:06.17

     Peak level 98.5 %
     Track quality 100.0 %
     Test CRC 370B6896
     Copy CRC 370B6896
     Copy OK

No errors occurred

End of status report
